<svg width="48" height="48" viewBox="0 0 48 48" fill="none" xmlns="http://www.w3.org/2000/svg">
<path d="M4.124 24.6962C3.95732 24.2472 3.95732 23.7533 4.124 23.3042C5.7474 19.3679 8.50303 16.0023 12.0415 13.634C15.5801 11.2657 19.7421 10.0015 24 10.0015C28.2579 10.0015 32.42 11.2657 35.9585 13.634C39.497 16.0023 42.2526 19.3679 43.876 23.3042C44.0427 23.7533 44.0427 24.2472 43.876 24.6962C42.2526 28.6325 39.497 31.9982 35.9585 34.3664C32.42 36.7347 28.2579 37.999 24 37.999C19.7421 37.999 15.5801 36.7347 12.0415 34.3664C8.50303 31.9982 5.7474 28.6325 4.124 24.6962Z" stroke="#00307A" stroke-width="3" stroke-linecap="round" stroke-linejoin="round"/>
<path d="M24 30.0002C27.3137 30.0002 30 27.3139 30 24.0002C30 20.6865 27.3137 18.0002 24 18.0002C20.6863 18.0002 18 20.6865 18 24.0002C18 27.3139 20.6863 30.0002 24 30.0002Z" stroke="#00307A" stroke-width="3" stroke-linecap="round" stroke-linejoin="round"/>
</svg>
