<svg width="48" height="48" viewBox="0 0 48 48" fill="none" xmlns="http://www.w3.org/2000/svg">
<path d="M1.5 24.4256C1.5 34.7233 8.26335 43.4163 17.5011 46.3937C18.9857 46.8722 20.4013 45.6703 20.4013 44.091V32.1119C20.4013 31.4121 19.8418 30.8447 19.1513 30.8447H16.0264C15.336 30.8447 14.7764 30.2774 14.7764 29.5774V25.6927C14.7764 24.9929 15.336 24.4254 16.0264 24.4254H19.1513C19.8418 24.4254 20.4013 23.8581 20.4013 23.1581V19.3818C20.4013 13.6504 24.0013 10.4408 29.1763 10.4408C30.403 10.4408 31.7662 10.5799 33.0532 10.7497C33.6697 10.831 34.1263 11.3673 34.1263 11.9977V15.4781C34.1263 16.178 33.5667 16.7454 32.8762 16.7454H31.2012C28.5012 16.7454 27.8263 18.1209 27.8263 19.9549V23.1581C27.8263 23.8581 28.386 24.4254 29.0763 24.4254H32.323C33.0922 24.4254 33.6787 25.1229 33.5575 25.8929L32.9447 29.7776C32.8477 30.3922 32.3245 30.8447 31.7102 30.8447H29.0705C28.3825 30.8447 27.8238 31.4083 27.8205 32.1059L27.7643 44.0763C27.7568 45.6607 29.1752 46.8704 30.6637 46.3881C39.8695 43.4054 46.5 34.717 46.5 24.4256C46.5 11.8166 36.375 1.5 24 1.5C11.625 1.5 1.5 11.8166 1.5 24.4256Z" stroke="white" stroke-width="3" stroke-linecap="round"/>
</svg>
