<svg width="50" height="51" viewBox="0 0 50 51" fill="none" xmlns="http://www.w3.org/2000/svg">
<path d="M25.5025 11C28.1361 11 30.5649 11.6752 32.6652 13.0009C33.8892 13.7733 35.5289 13.7835 36.5524 12.7602L39.6076 9.70496C40.6756 8.63685 40.6521 6.88147 39.4358 5.98584C35.611 3.1696 30.9214 1.5 25.5025 1.5C16.1225 1.5 8.0125 6.88 4.0625 14.72L12.0425 20.9099C13.9325 15.22 19.2425 11 25.5025 11Z" stroke="white" stroke-width="3" stroke-linecap="round"/>
<path d="M48.48 26.0501C48.48 25.2747 48.4435 24.5115 48.3787 23.7619C48.2659 22.4541 47.1331 21.5 45.8205 21.5H28.1667C26.6939 21.5 25.5 22.6939 25.5 24.1667V27.8533C25.5 29.3261 26.6939 30.52 28.1667 30.52H38.44C37.86 33.48 36.18 36 33.66 37.7L41.3899 43.7C45.9 39.52 48.48 33.34 48.48 26.0501Z" stroke="white" stroke-width="3" stroke-linecap="round"/>
<path d="M12.03 30.0886C11.55 28.6388 11.27 27.0988 11.27 25.4988C11.27 23.8988 11.54 22.3588 12.03 20.9086L4.05 14.7188C2.42 17.9588 1.5 21.6188 1.5 25.4988C1.5 29.3788 2.42 33.0388 4.06 36.2788L12.03 30.0886Z" stroke="white" stroke-width="3" stroke-linecap="round"/>
<path d="M25.4969 49.4981C31.9769 49.4981 37.4267 47.368 41.3867 43.688L33.6569 37.688C31.5067 39.1381 28.7369 39.988 25.4969 39.988C19.2369 39.988 13.9269 35.768 12.0269 30.0781L4.04688 36.268C8.00688 44.1181 16.1169 49.4981 25.4969 49.4981Z" stroke="white" stroke-width="3" stroke-linecap="round"/>
</svg>
