<svg width="49" height="49" viewBox="0 0 49 49" fill="none" xmlns="http://www.w3.org/2000/svg">
<path d="M44.8685 40.4667C46.8333 37.2603 46.8333 32.8957 46.8333 24.1667C46.8333 15.4375 46.8333 11.0729 44.8685 7.86669C43.7691 6.07261 42.2608 4.56421 40.4667 3.4648C37.2603 1.5 32.8957 1.5 24.1667 1.5C15.4375 1.5 11.0729 1.5 7.86669 3.4648C6.07261 4.56421 4.56421 6.07261 3.4648 7.86669C1.5 11.0729 1.5 15.4375 1.5 24.1667C1.5 32.8957 1.5 37.2603 3.4648 40.4667C4.56421 42.2608 6.07261 43.7691 7.86669 44.8685C11.0729 46.8333 15.4375 46.8333 24.1667 46.8333C32.8957 46.8333 37.2603 46.8333 40.4667 44.8685C42.2608 43.7691 43.7691 42.2608 44.8685 40.4667Z" stroke="white" stroke-width="3" stroke-linecap="round"/>
<path d="M38.8307 10.8333C38.8307 11.5697 38.2337 12.1667 37.4974 12.1667C36.7611 12.1667 36.1641 11.5697 36.1641 10.8333C36.1641 10.097 36.7611 9.5 37.4974 9.5C38.2337 9.5 38.8307 10.097 38.8307 10.8333Z" stroke="white" stroke-width="3" stroke-linecap="round"/>
<path d="M34.8333 24.1667C34.8333 30.0576 30.0576 34.8333 24.1667 34.8333C18.2756 34.8333 13.5 30.0576 13.5 24.1667C13.5 18.2756 18.2756 13.5 24.1667 13.5C30.0576 13.5 34.8333 18.2756 34.8333 24.1667Z" stroke="white" stroke-width="3" stroke-linecap="round"/>
</svg>
