<svg width="30" height="30" viewBox="0 0 30 30" fill="none" xmlns="http://www.w3.org/2000/svg">
<path d="M13.6221 4.41724C13.0121 4.41724 12.5176 4.91172 12.5176 5.52171C12.5176 6.13169 13.0121 6.62619 13.6221 6.62619C17.4865 6.62619 20.619 9.75821 20.619 13.6213C20.619 14.2312 21.1135 14.7257 21.7235 14.7257C22.3334 14.7257 22.8279 14.2312 22.8279 13.6213C22.8279 8.53774 18.706 4.41724 13.6221 4.41724Z" fill="#030F95" fill-opacity="0.33"/>
<path fill-rule="evenodd" clip-rule="evenodd" d="M0 13.6188C0 6.09713 6.09898 0 13.6219 0C21.1448 0 27.2438 6.09713 27.2438 13.6188C27.2438 16.9833 26.0235 20.0628 24.0015 22.439L29.1274 27.5656C29.5587 27.9969 29.5587 28.6961 29.1274 29.1274C28.6961 29.5588 27.9967 29.5588 27.5654 29.1274L22.4388 24.0005C20.0627 26.0196 16.9845 27.2378 13.6219 27.2378C6.09898 27.2378 0 21.1406 0 13.6188ZM13.6219 2.20895C7.31844 2.20895 2.20895 7.3176 2.20895 13.6188C2.20895 19.9202 7.31844 25.0288 13.6219 25.0288C19.9254 25.0288 25.0348 19.9202 25.0348 13.6188C25.0348 7.3176 19.9254 2.20895 13.6219 2.20895Z" fill="#030F95" fill-opacity="0.33"/>
</svg>
